name C:\Users\antoi\Documents\MyRepositories\upper-imu-dc\Results\main_tracking\Case_99\kinematics.mot
datacolumns 43
datarows 8
range 2.10000000 2.24000000
endheader 
time	clav_prot	clav_elev	scapula_abduction	scapula_elevation	scapula_upward_rot	scapula_winging	plane_elv	shoulder_elv	axial_rot	TrapeziusScapula_M/activation	TrapeziusScapula_S/activation	TrapeziusScapula_I/activation	TrapeziusClavicle_S/activation	SerratusAnterior_I/activation	SerratusAnterior_M/activation	SerratusAnterior_S/activation	Rhomboideus_S/activation	Rhomboideus_I/activation	LevatorScapulae/activation	Coracobrachialis/activation	DeltoideusClavicle_A/activation	DeltoideusScapula_P/activation	DeltoideusScapula_M/activation	LatissimusDorsi_S/activation	LatissimusDorsi_M/activation	LatissimusDorsi_I/activation	PectoralisMajorClavicle_S/activation	PectoralisMajorThorax_I/activation	PectoralisMajorThorax_M/activation	TeresMajor/activation	Infraspinatus_I/activation	Infraspinatus_S/activation	PectoralisMinor/activation	TeresMinor/activation	Subscapularis_S/activation	Subscapularis_M/activation	Subscapularis_I/activation	Supraspinatus_P/activation	Supraspinatus_A/activation	TRIlong/activation	BIC_long/activation	BIC_brevis/activation	
          2.10000000	        -22.36430337	         -4.66370328	        -13.07353384	         -3.81308376	         11.18571540	          5.95839251	         -1.33807030	         18.71972413	         31.76833424	          0.04112596	          0.03403187	          0.03452780	          0.06930339	          0.04235687	          0.06789917	          0.06060559	          0.06912813	          0.08288668	          0.09545865	          0.04736019	          0.03374069	          0.11903823	          0.07544939	          0.05729889	          0.05868970	          0.06008380	          0.04348059	          0.05787072	          0.04985007	          0.09995531	          0.02063584	          0.03811391	          0.06136247	          0.04266679	          0.08064778	          0.08305953	          0.09535370	          0.05789616	          0.04974325	          0.11097422	          0.04785706	          0.04131561	
          2.12000000	        -22.55337816	         -4.76681002	        -13.35719423	         -3.91264485	         11.21766853	          5.99183457	         -2.05135237	         18.58639827	         31.45727966	          0.04218187	          0.03568009	          0.03560649	          0.06931439	          0.04293643	          0.06702878	          0.06027437	          0.06904278	          0.08258643	          0.09491033	          0.04858645	          0.03463854	          0.11784673	          0.07237133	          0.05736512	          0.05865300	          0.06009129	          0.04425787	          0.05721683	          0.04986699	          0.09856357	          0.02301083	          0.03909606	          0.06067056	          0.04411353	          0.07923741	          0.08179475	          0.09327240	          0.05792229	          0.04958489	          0.11026298	          0.04794438	          0.04268941	
          2.14000000	        -22.73646468	         -4.83024095	        -13.61456099	         -3.99358467	         11.29519458	          6.00020904	         -2.74328846	         18.44088602	         31.15339093	          0.04291111	          0.03692365	          0.03641473	          0.06925179	          0.04341421	          0.06632624	          0.06002567	          0.06889497	          0.08224891	          0.09454782	          0.04973354	          0.03547675	          0.11682773	          0.06935942	          0.05737386	          0.05858995	          0.06010338	          0.04507136	          0.05698391	          0.05015256	          0.09752197	          0.02485710	          0.03978466	          0.06028386	          0.04527150	          0.07803613	          0.08069689	          0.09149020	          0.05795475	          0.04955418	          0.10992940	          0.04803655	          0.04401657	
          2.16000000	        -22.90294691	         -4.86368862	        -13.83278637	         -4.05882291	         11.40401309	          5.98968778	         -3.39167977	         18.29030715	         30.88979332	          0.04337402	          0.03750751	          0.03704946	          0.06906624	          0.04358830	          0.06577584	          0.05988058	          0.06870355	          0.08202214	          0.09453500	          0.05063784	          0.03605150	          0.11636860	          0.06665716	          0.05738553	          0.05859233	          0.06013281	          0.04575338	          0.05719367	          0.05061284	          0.09707921	          0.02607364	          0.04017185	          0.06030241	          0.04605148	          0.07713991	          0.07986634	          0.09019051	          0.05796723	          0.04960075	          0.11028159	          0.04804614	          0.04508796	
          2.18000000	        -23.04177931	         -4.87721572	        -14.00082124	         -4.11035783	         11.52538001	          5.96800770	         -3.97778616	         18.14419148	         30.69849889	          0.04295609	          0.03726449	          0.03711849	          0.06876987	          0.04348259	          0.06470762	          0.05980308	          0.06849004	          0.08198792	          0.09466578	          0.05131721	          0.03633328	          0.11661855	          0.06446176	          0.05750572	          0.05875744	          0.06017442	          0.04613246	          0.05754847	          0.05092475	          0.09724642	          0.02650145	          0.04010190	          0.06060755	          0.04649141	          0.07653436	          0.07935754	          0.08945672	          0.05794271	          0.04961055	          0.11136081	          0.04789625	          0.04589268	
          2.20000000	        -23.16195143	         -4.87810293	        -14.14366033	         -4.14898964	         11.63937968	          5.94300397	         -4.48726991	         18.01089488	         30.61050048	          0.04267187	          0.03644976	          0.03724949	          0.06830824	          0.04258817	          0.06345197	          0.05979337	          0.06834189	          0.08238102	          0.09550994	          0.05159561	          0.03612392	          0.11767546	          0.06262560	          0.05768668	          0.05907066	          0.06022842	          0.04619932	          0.05820237	          0.05125521	          0.09817411	          0.02624184	          0.03973609	          0.06116075	          0.04650774	          0.07639504	          0.07928317	          0.08944542	          0.05786322	          0.04963074	          0.11323745	          0.04757533	          0.04621653	
          2.22000000	        -23.22695549	         -4.87476500	        -14.20631453	         -4.17424655	         11.72837966	          5.92122434	         -4.90849795	         17.89421244	         30.65088388	          0.04218385	          0.03548656	          0.03672605	          0.06792196	          0.04165102	          0.06254090	          0.05988658	          0.06833264	          0.08324574	          0.09683936	          0.05153229	          0.03560905	          0.11924439	          0.06177594	          0.05789774	          0.05942986	          0.06026691	          0.04597927	          0.05904023	          0.05148042	          0.09958554	          0.02532471	          0.03915268	          0.06206084	          0.04614130	          0.07666955	          0.07961545	          0.09008181	          0.05775328	          0.04960920	          0.11550537	          0.04716633	          0.04611123	
          2.24000000	        -23.25289031	         -4.86555232	        -14.22466394	         -4.18229563	         11.77903920	          5.90610499	         -5.23789024	         17.79459207	         30.83849581	          0.04147306	          0.03446237	          0.03587410	          0.06764569	          0.04026867	          0.06143267	          0.05991948	          0.06838720	          0.08431655	          0.09881674	          0.05123293	          0.03488014	          0.12112175	          0.06162210	          0.05804091	          0.05971627	          0.06025869	          0.04554798	          0.05959151	          0.05149385	          0.10131099	          0.02383372	          0.03822993	          0.06274684	          0.04548336	          0.07727573	          0.08027916	          0.09123477	          0.05764598	          0.04968382	          0.11792973	          0.04672149	          0.04573216	
